<svg width="200" height="300" viewBox="0 0 200 300" xmlns="http://www.w3.org/2000/svg">
  <rect width="200" height="300" fill="#8B0000" stroke="#660000" stroke-width="2"/>
  <rect x="10" y="10" width="180" height="280" fill="#f5f5f5" stroke="#ddd" stroke-width="1"/>
  <text x="100" y="50" text-anchor="middle" font-family="Arial, sans-serif" font-size="16" font-weight="bold" fill="#8B0000">Book Cover</text>
  <text x="100" y="80" text-anchor="middle" font-family="Arial, sans-serif" font-size="12" fill="#666">No Cover Available</text>
  <rect x="20" y="100" width="160" height="2" fill="#ddd"/>
  <rect x="20" y="110" width="140" height="2" fill="#ddd"/>
  <rect x="20" y="120" width="150" height="2" fill="#ddd"/>
  <rect x="20" y="130" width="130" height="2" fill="#ddd"/>
  <rect x="20" y="140" width="145" height="2" fill="#ddd"/>
  <rect x="20" y="150" width="135" height="2" fill="#ddd"/>
  <rect x="20" y="160" width="155" height="2" fill="#ddd"/>
  <rect x="20" y="170" width="125" height="2" fill="#ddd"/>
  <rect x="20" y="180" width="140" height="2" fill="#ddd"/>
  <rect x="20" y="190" width="130" height="2" fill="#ddd"/>
  <rect x="20" y="200" width="150" height="2" fill="#ddd"/>
  <rect x="20" y="210" width="120" height="2" fill="#ddd"/>
  <rect x="20" y="220" width="145" height="2" fill="#ddd"/>
  <rect x="20" y="230" width="135" height="2" fill="#ddd"/>
  <rect x="20" y="240" width="140" height="2" fill="#ddd"/>
  <rect x="20" y="250" width="130" height="2" fill="#ddd"/>
  <rect x="20" y="260" width="150" height="2" fill="#ddd"/>
  <rect x="20" y="270" width="125" height="2" fill="#ddd"/>
</svg>
